# xmcd
#
# Track frame offsets: 
#        150
#        15635
#        35890
#        55167
#        78100
#        95737
#        120152
#        143795
#        165522
#        178892
#        200510
#        222107
#        243787
#        266840
#
# Disc length: 3841 seconds
#
# Revision: 29
# Processed by: cddbd v1.5.2PL0 Copyright (c) Steve Scherf et al.
# Submitted via: ExactAudioCopyFreeDBPlugin 1.0
#
DISCID=bd0eff0e,c70eff0e
DTITLE=ERIC CLAPTON - Reptile
DYEAR=2001
DGENRE=Blues
TTITLE0=Reptile
TTITLE1=Got You On My Mind
TTITLE2=Travelin' Light
TTITLE3=Believe In Life
TTITLE4=Come Back Baby
TTITLE5=Broken Down
TTITLE6=Find Myself
TTITLE7=I Ain't Gonna Stand For It
TTITLE8=I Want A Little Girl
TTITLE9=Second Nature
TTITLE10=Don't Let Me Be Lonely Tonight
TTITLE11=Modern Girl
TTITLE12=Superman Inside
TTITLE13=Son and Sylvia
EXTD=YEAR: 2001
EXTT0=
EXTT1=
EXTT2=
EXTT3=
EXTT4=
EXTT5=
EXTT6=
EXTT7=
EXTT8=
EXTT9=
EXTT10=
EXTT11=
EXTT12=
EXTT13=
PLAYORDER=
